<?xml version="1.0" standalone="no"?><!DOCTYPE svg PUBLIC "-//W3C//DTD SVG 1.1//EN" "http://www.w3.org/Graphics/SVG/1.1/DTD/svg11.dtd"><svg t="1525760587375" class="icon" style="" viewBox="0 0 1024 1024" version="1.1" xmlns="http://www.w3.org/2000/svg" p-id="4769" xmlns:xlink="http://www.w3.org/1999/xlink" width="18" height="18"><defs><style type="text/css"></style></defs><path d="M823.173192 961.512522H200.465608c-49.845503 0-90.299824-40.454321-90.299823-90.299824V158.92769c0-49.845503 40.454321-90.299824 90.299823-90.299824h434.883951c44.427513 0 104.747795 24.200353 136.894533 55.263492L856.042328 204.438801c27.812346 26.728748 57.430688 71.51746 57.430688 101.135802v565.638095c0 49.845503-40.454321 90.299824-90.299824 90.299824M200.465608 104.747795c-29.979541 0-54.179894 24.200353-54.179894 54.179895v712.285008c0 29.979541 24.200353 54.179894 54.179894 54.179895h622.707584c29.979541 0 54.179894-24.200353 54.179894-54.179895V305.574603c0-12.641975-17.698765-47.317108-46.594709-75.129453l-83.798236-80.547443c-25.283951-24.561552-76.57425-45.149912-111.610582-45.149912H200.465608z" fill="#333333" p-id="4770"></path><path d="M895.413051 334.109347h-134.727337c-49.845503 0-90.299824-40.454321-90.299823-90.299823V108.720988h36.119929v135.088536c0 29.979541 24.200353 54.179894 54.179894 54.179894h134.727337v36.119929zM253.200705 287.875838h258.618695v36.119929H253.200705zM253.200705 429.465961h521.932981v36.11993H253.200705zM253.200705 570.694885h521.932981v36.11993H253.200705zM253.200705 711.92381h521.932981v36.119929H253.200705z" fill="#333333" p-id="4771"></path></svg>