<?xml version="1.0" standalone="no"?><!DOCTYPE svg PUBLIC "-//W3C//DTD SVG 1.1//EN" "http://www.w3.org/Graphics/SVG/1.1/DTD/svg11.dtd"><svg t="1525759772725" class="icon" style="" viewBox="0 0 1024 1024" version="1.1" xmlns="http://www.w3.org/2000/svg" p-id="3101" xmlns:xlink="http://www.w3.org/1999/xlink" width="18" height="18"><defs><style type="text/css"></style></defs><path d="M817.602 226.22H487.119v-43.192c0-14.185-11.503-25.671-25.679-25.671H207.931c-14.161 0-25.664 11.486-25.664 25.671V425.01c0 14.168 11.503 25.655 25.664 25.655h212.396c4.156 8.586 12.856 14.555 23.037 14.555h374.238c14.161 0 25.664-11.494 25.664-25.671v-187.65c0-14.185-11.503-25.679-25.664-25.679z" fill="#E28F2A" p-id="3102"></path><path d="M170.201 419.943l-13.983-90.547h708.183v75.452z" fill="#FDEEE2" p-id="3103"></path><path d="M846.294 791.193c0 14.169-15.095 45.27-29.271 45.27H203.404c-14.177 0-24.149-18.253-24.149-32.431l-98.69-403.687c0-14.185 11.486-25.68 25.663-25.68h790.749c14.177 0 25.68 11.495 25.68 25.68l-76.363 390.848z" fill="#E28F2A" p-id="3104"></path><path d="M221.512 269.032h582.509v34.975H221.512z" fill="#FDEEE2" p-id="3105"></path></svg>