<?xml version="1.0" standalone="no"?><!DOCTYPE svg PUBLIC "-//W3C//DTD SVG 1.1//EN" "http://www.w3.org/Graphics/SVG/1.1/DTD/svg11.dtd"><svg t="1525759726914" class="icon" style="" viewBox="0 0 1024 1024" version="1.1" xmlns="http://www.w3.org/2000/svg" p-id="1603" xmlns:xlink="http://www.w3.org/1999/xlink" width="18" height="18"><defs><style type="text/css"></style></defs><path d="M821.12 807.04h-606.72v-608h606.72v608z m-574.72-32h542.72v-544h-542.72v544z" fill="" p-id="1604"></path><path d="M701.44 518.4h-368c-8.96 0-16-7.04-16-16s7.04-16 16-16h368c8.96 0 16 7.04 16 16S710.4 518.4 701.44 518.4z" fill="" p-id="1605"></path><path d="M517.76 695.68c-8.96 0-16-7.04-16-16v-353.92c0-8.96 7.04-16 16-16s16 7.04 16 16v353.92c0 8.32-7.04 16-16 16z" fill="" p-id="1606"></path></svg>